<?xml version="1.0" encoding="UTF-8"?>
<svg version="1.1" xmlns="http://www.w3.org/2000/svg" width="493" height="228">
<path d="M0 0 C162.69 0 325.38 0 493 0 C493 75.24 493 150.48 493 228 C330.31 228 167.62 228 0 228 C0 152.76 0 77.52 0 0 Z " fill="#333333" transform="translate(0,0)"/>
<path d="M0 0 C2.875 -0.125 2.875 -0.125 6 0 C8 2 8 2 8 6 C8.60328125 6.17015625 9.2065625 6.3403125 9.828125 6.515625 C18.15390565 9.04021655 18.15390565 9.04021655 21 13 C21 13.99 21 14.98 21 16 C20.34 16 19.68 16 19 16 C18.7525 15.38125 18.505 14.7625 18.25 14.125 C16.76749514 11.60474173 15.71612936 10.98768341 13 10 C12.01 10 11.02 10 10 10 C10 10.66 10 11.32 10 12 C11.32 12.33 12.64 12.66 14 13 C13.34 13.33 12.68 13.66 12 14 C11.27840576 15.64363134 10.60648579 17.31050386 10 19 C11.31355469 18.89300781 12.62710938 18.78601563 13.98046875 18.67578125 C15.71608502 18.55381903 17.45176587 18.43277333 19.1875 18.3125 C20.05181641 18.23966797 20.91613281 18.16683594 21.80664062 18.09179688 C25.64339295 17.84189347 28.42151818 17.79271681 32.07421875 19.1015625 C34.73479222 21.72435906 34.59860318 23.3713449 34.625 27.0625 C34.94603746 34.88019599 36.66233451 41.2663173 40 48.3125 C42.63376049 53.94469551 43.76291469 59.93640762 45 66 C45.66 66 46.32 66 47 66 C47.12117188 66.63808594 47.24234375 67.27617188 47.3671875 67.93359375 C47.53476563 68.75988281 47.70234375 69.58617188 47.875 70.4375 C48.03742188 71.26121094 48.19984375 72.08492188 48.3671875 72.93359375 C48.68042969 73.95646484 48.68042969 73.95646484 49 75 C49.66 75.33 50.32 75.66 51 76 C51.96484375 78.109375 51.96484375 78.109375 52.9375 80.75 C54.34244329 84.43011264 55.927545 87.64459666 58 91 C59.96304495 97.47127921 59.62344144 104.00190372 56.9765625 110.2109375 C54.87156879 114.06728597 52.37630927 116.42889219 48.3359375 118.10546875 C37.0357736 121.13560638 25.21406926 119.51932128 15 114 C11.13658244 111.55015059 7.55569207 108.87408976 4 106 C3.29617187 105.47148437 2.59234375 104.94296875 1.8671875 104.3984375 C-2.36741214 101.08517335 -4.12866595 98.14616862 -6 93 C-6.495 92.175 -6.99 91.35 -7.5 90.5 C-9 88 -9 88 -10.125 84.875 C-13.36689467 77.08759164 -19.29045143 70.33746692 -27 67 C-27 66.34 -27 65.68 -27 65 C-24.96246024 63.56805405 -22.94713033 62.27110673 -20.8125 61 C-20.23435547 60.64421875 -19.65621094 60.2884375 -19.06054688 59.921875 C-15.74047755 57.91107595 -12.63603253 56.45441301 -9 55 C-8.67 51.37 -8.34 47.74 -8 44 C-5 45 -5 45 -3.39453125 47.72265625 C-2.61142578 49.37587891 -2.61142578 49.37587891 -1.8125 51.0625 C-1.28269531 52.16722656 -0.75289062 53.27195313 -0.20703125 54.41015625 C0.19128906 55.26480469 0.58960938 56.11945313 1 57 C1.33 55.02 1.66 53.04 2 51 C2.99 51 3.98 51 5 51 C5 46.71 5 42.42 5 38 C5.99 38 6.98 38 8 38 C8.25394531 38.78503906 8.50789063 39.57007813 8.76953125 40.37890625 C10.62449433 46.04105949 12.53397712 51.57474966 15 57 C15.33 54.69 15.66 52.38 16 50 C17.175625 50.04125 18.35125 50.0825 19.5625 50.125 C23.6565092 50.13949207 27.08277624 49.20529962 31 48 C32.32 48 33.64 48 35 48 C35 45.69 35 43.38 35 41 C33.83082031 41.2165625 32.66164063 41.433125 31.45703125 41.65625 C29.90889582 41.93772917 28.36071639 42.21896644 26.8125 42.5 C26.04357422 42.64308594 25.27464844 42.78617188 24.48242188 42.93359375 C20.60578227 43.63238715 16.958529 44.19039017 13 44 C13.391875 43.46375 13.78375 42.9275 14.1875 42.375 C15.33744549 39.84955972 15.33744549 39.84955972 13.75 36.8125 C12.29691186 33.93047446 12.29691186 33.93047446 10 33 C6.75469635 32.80076581 3.5113038 32.68167367 0.26171875 32.57421875 C-3.63330347 31.88850825 -5.29211944 30.85940457 -8 28 C-8.92578125 25.421875 -8.92578125 25.421875 -9.3125 22.75 C-9.45300781 21.85796875 -9.59351562 20.9659375 -9.73828125 20.046875 C-9.82464844 19.37140625 -9.91101563 18.6959375 -10 18 C-10.95712891 19.17369141 -10.95712891 19.17369141 -11.93359375 20.37109375 C-12.75988281 21.38300781 -13.58617188 22.39492187 -14.4375 23.4375 C-15.26121094 24.44683594 -16.08492187 25.45617187 -16.93359375 26.49609375 C-19 29 -19 29 -20 30 C-21.09330504 36.73376511 -20.24767639 41.34276003 -16.5 47.0625 C-15.8503125 47.96097656 -15.200625 48.85945313 -14.53125 49.78515625 C-13 52 -13 52 -13 54 C-13.66 54 -14.32 54 -15 54 C-16.65220138 51.82291154 -18.14922145 49.66706857 -19.625 47.375 C-20.04523437 46.75753906 -20.46546875 46.14007813 -20.8984375 45.50390625 C-23.47620532 41.52845263 -24.52605566 38.88480259 -24 34 C-25.14926266 34.95421808 -26.29430541 35.91352045 -27.4375 36.875 C-28.07558594 37.40867188 -28.71367187 37.94234375 -29.37109375 38.4921875 C-31.27181233 40.25160566 -31.91900602 41.34806487 -32.23828125 43.91796875 C-32.43347511 49.88679167 -31.43006087 53.09991304 -28 58 C-27.01769502 59.0173873 -26.02530403 60.02596117 -25 61 C-25 61.66 -25 62.32 -25 63 C-30.52353065 60.7637033 -33.2713076 56.09796027 -36 51 C-37.1121248 47.64660328 -37.18565189 45.34034618 -36 42 C-31.8646125 35.99999581 -26.37157488 31.37730871 -20.83984375 26.7109375 C-18.33482937 24.38143368 -16.42578956 21.76781262 -14.4375 18.99609375 C-12.97404499 16.96395922 -11.46054989 15.00083475 -9.875 13.0625 C-9.41867188 12.49660156 -8.96234375 11.93070313 -8.4921875 11.34765625 C-6.71809865 9.74540323 -5.33059866 9.39510149 -3 9 C-2.67 7.35 -2.34 5.7 -2 4 C-1.01 4.33 -0.02 4.66 1 5 C1 5.66 1 6.32 1 7 C2.32 6.67 3.64 6.34 5 6 C5.33 4.68 5.66 3.36 6 2 C3.69 2.33 1.38 2.66 -1 3 C-0.67 2.01 -0.34 1.02 0 0 Z " fill="#393436" transform="translate(57,57)"/>
<path d="M0 0 C2.875 -0.125 2.875 -0.125 6 0 C8 2 8 2 8 6 C8.60328125 6.17015625 9.2065625 6.3403125 9.828125 6.515625 C18.15390565 9.04021655 18.15390565 9.04021655 21 13 C21 13.99 21 14.98 21 16 C20.34 16 19.68 16 19 16 C18.7525 15.38125 18.505 14.7625 18.25 14.125 C16.76749514 11.60474173 15.71612936 10.98768341 13 10 C12.01 10 11.02 10 10 10 C10 10.66 10 11.32 10 12 C11.32 12.33 12.64 12.66 14 13 C13.34 13.33 12.68 13.66 12 14 C11.27840576 15.64363134 10.60648579 17.31050386 10 19 C11.31355469 18.89300781 12.62710938 18.78601563 13.98046875 18.67578125 C15.71608502 18.55381903 17.45176587 18.43277333 19.1875 18.3125 C20.05181641 18.23966797 20.91613281 18.16683594 21.80664062 18.09179688 C25.64339295 17.84189347 28.42151818 17.79271681 32.07421875 19.1015625 C34.73479222 21.72435906 34.59860318 23.3713449 34.625 27.0625 C34.98250911 35.76832997 37.33149548 42.66783383 40.94921875 50.50390625 C43.67611773 56.98155847 46.36827742 63.89750693 46 71 C45.236875 70.773125 44.47375 70.54625 43.6875 70.3125 C38.42884148 69.86685097 33.98540862 71.42986241 29 73 C29.93545998 75.59256899 29.93545998 75.59256899 32 78 C34.72714162 78.76381481 37.14167178 78.85942648 40 79 C39.34 79.66 38.68 80.32 38 81 C37.01 81 36.02 81 35 81 C35.33 82.32 35.66 83.64 36 85 C38.97 85.66 41.94 86.32 45 87 C45 87.33 45 87.66 45 88 C37.71677451 88.493778 37.71677451 88.493778 34.1875 86.0625 C33.465625 85.381875 32.74375 84.70125 32 84 C30.515 83.505 30.515 83.505 29 83 C27.5522078 80.10441559 27 78.25811062 27 75 C26.01 75 25.02 75 24 75 C24.0825 74.175 24.165 73.35 24.25 72.5 C23.92764011 67.98696153 22.20705349 64.88204944 20 61 C19.34 63.64 18.68 66.28 18 69 C17.34 69 16.68 69 16 69 C15.67 67.02 15.34 65.04 15 63 C14.34 63 13.68 63 13 63 C12.5186659 61.27143541 12.04003029 59.54211929 11.5625 57.8125 C11.29566406 56.84957031 11.02882812 55.88664062 10.75390625 54.89453125 C10.07119982 52.27336303 9.50107805 49.661065 9 47 C8.34 47 7.68 47 7 47 C7 48.65 7 50.3 7 52 C6.01 52.33 5.02 52.66 4 53 C4.144375 53.56847656 4.28875 54.13695312 4.4375 54.72265625 C5.61545505 59.62262205 6.21427527 63.9645312 6 69 C5.01 69 4.02 69 3 69 C2.34 66.36 1.68 63.72 1 61 C0.34 61 -0.32 61 -1 61 C-1.99 59.02 -2.98 57.04 -4 55 C-6.79483736 56.45231568 -9.58528743 57.91286769 -12.375 59.375 C-13.1690625 59.7875 -13.963125 60.2 -14.78125 60.625 C-15.54179688 61.02460937 -16.30234375 61.42421875 -17.0859375 61.8359375 C-18.1385376 62.38580322 -18.1385376 62.38580322 -19.21240234 62.94677734 C-21.16163413 63.99478038 -21.16163413 63.99478038 -23 66 C-23.99 65.67 -24.98 65.34 -26 65 C-20.52794678 60.98128888 -15.38994419 57.36150111 -9 55 C-8.67 51.37 -8.34 47.74 -8 44 C-5 45 -5 45 -3.39453125 47.72265625 C-2.61142578 49.37587891 -2.61142578 49.37587891 -1.8125 51.0625 C-1.28269531 52.16722656 -0.75289062 53.27195313 -0.20703125 54.41015625 C0.19128906 55.26480469 0.58960938 56.11945313 1 57 C1.33 55.02 1.66 53.04 2 51 C2.99 51 3.98 51 5 51 C5 46.71 5 42.42 5 38 C5.99 38 6.98 38 8 38 C8.25394531 38.78503906 8.50789063 39.57007813 8.76953125 40.37890625 C10.62449433 46.04105949 12.53397712 51.57474966 15 57 C15.33 54.69 15.66 52.38 16 50 C17.175625 50.04125 18.35125 50.0825 19.5625 50.125 C23.6565092 50.13949207 27.08277624 49.20529962 31 48 C32.32 48 33.64 48 35 48 C35 45.69 35 43.38 35 41 C33.83082031 41.2165625 32.66164063 41.433125 31.45703125 41.65625 C29.90889582 41.93772917 28.36071639 42.21896644 26.8125 42.5 C26.04357422 42.64308594 25.27464844 42.78617188 24.48242188 42.93359375 C20.60578227 43.63238715 16.958529 44.19039017 13 44 C13.391875 43.46375 13.78375 42.9275 14.1875 42.375 C15.33744549 39.84955972 15.33744549 39.84955972 13.75 36.8125 C12.29691186 33.93047446 12.29691186 33.93047446 10 33 C6.75469635 32.80076581 3.5113038 32.68167367 0.26171875 32.57421875 C-3.63330347 31.88850825 -5.29211944 30.85940457 -8 28 C-8.92578125 25.421875 -8.92578125 25.421875 -9.3125 22.75 C-9.45300781 21.85796875 -9.59351562 20.9659375 -9.73828125 20.046875 C-9.82464844 19.37140625 -9.91101563 18.6959375 -10 18 C-10.95712891 19.17369141 -10.95712891 19.17369141 -11.93359375 20.37109375 C-12.75988281 21.38300781 -13.58617188 22.39492187 -14.4375 23.4375 C-15.26121094 24.44683594 -16.08492187 25.45617187 -16.93359375 26.49609375 C-19 29 -19 29 -20 30 C-21.09330504 36.73376511 -20.24767639 41.34276003 -16.5 47.0625 C-15.8503125 47.96097656 -15.200625 48.85945313 -14.53125 49.78515625 C-13 52 -13 52 -13 54 C-13.66 54 -14.32 54 -15 54 C-16.65220138 51.82291154 -18.14922145 49.66706857 -19.625 47.375 C-20.04523437 46.75753906 -20.46546875 46.14007813 -20.8984375 45.50390625 C-23.47620532 41.52845263 -24.52605566 38.88480259 -24 34 C-25.14926266 34.95421808 -26.29430541 35.91352045 -27.4375 36.875 C-28.07558594 37.40867188 -28.71367187 37.94234375 -29.37109375 38.4921875 C-31.27181233 40.25160566 -31.91900602 41.34806487 -32.23828125 43.91796875 C-32.43347511 49.88679167 -31.43006087 53.09991304 -28 58 C-27.01769502 59.0173873 -26.02530403 60.02596117 -25 61 C-25 61.66 -25 62.32 -25 63 C-30.52353065 60.7637033 -33.2713076 56.09796027 -36 51 C-37.1121248 47.64660328 -37.18565189 45.34034618 -36 42 C-31.8646125 35.99999581 -26.37157488 31.37730871 -20.83984375 26.7109375 C-18.33482937 24.38143368 -16.42578956 21.76781262 -14.4375 18.99609375 C-12.97404499 16.96395922 -11.46054989 15.00083475 -9.875 13.0625 C-9.41867188 12.49660156 -8.96234375 11.93070313 -8.4921875 11.34765625 C-6.71809865 9.74540323 -5.33059866 9.39510149 -3 9 C-2.67 7.35 -2.34 5.7 -2 4 C-1.01 4.33 -0.02 4.66 1 5 C1 5.66 1 6.32 1 7 C2.32 6.67 3.64 6.34 5 6 C5.33 4.68 5.66 3.36 6 2 C3.69 2.33 1.38 2.66 -1 3 C-0.67 2.01 -0.34 1.02 0 0 Z " fill="#B35169" transform="translate(57,57)"/>
<path d="M0 0 C0 0.66 0 1.32 0 2 C0.59683594 2.26554687 1.19367188 2.53109375 1.80859375 2.8046875 C7.04329361 5.65997833 10.7175378 11.02710544 12.5234375 16.640625 C14.44976171 26.17750877 13.33910231 33.88810422 8 42 C7.42378906 42.87785156 7.42378906 42.87785156 6.8359375 43.7734375 C3.2750674 48.5454879 -1.77713823 51.89744202 -7.375 53.8125 C-8.674375 53.9053125 -8.674375 53.9053125 -10 54 C-10.74121094 54.061875 -11.48242188 54.12375 -12.24609375 54.1875 C-18.38194554 54.48635427 -23.00420841 53.70377653 -28 50 C-29.69353367 48.2751046 -31.20163777 46.49952981 -32.6875 44.59375 C-34.00759743 42.84384793 -34.00759743 42.84384793 -36.25 41.4375 C-39.16204507 39.04546298 -39.80423093 35.71834587 -40.22265625 32.0456543 C-40.3400861 29.900788 -40.37975024 27.77305847 -40.375 25.625 C-40.37338867 24.87057617 -40.37177734 24.11615234 -40.37011719 23.33886719 C-40.24221875 17.5533439 -39.34915272 13.83766504 -36 9 C-35.401875 8.113125 -34.80375 7.22625 -34.1875 6.3125 C-25.11443454 -3.27902634 -12.20801135 -4.34062626 0 0 Z M-28.375 8.6875 C-33.41690378 14.29113763 -33.51050271 21.75556145 -33.3828125 28.9609375 C-32.60452503 35.13958697 -29.87539262 40.0259025 -25.625 44.5 C-20.27351692 47.55799033 -15.32609493 48.55780708 -9.26953125 47.66015625 C-2.50167 45.69153568 1.65795096 40.73023344 5.08984375 34.83203125 C7.63188438 29.71521985 7.44101224 24.58882789 7 19 C4.59268377 12.15815386 -0.66491591 7.34683688 -7 4 C-15.16617606 1.98247415 -22.01587475 3.06566464 -28.375 8.6875 Z " fill="#E8E8E8" transform="translate(263,87)"/>
<path d="M0 0 C5.93161255 4.52912715 9.54165662 11.47259242 10.98828125 18.75 C11.64066693 28.37268873 9.03190655 35.30960486 2.88671875 42.73828125 C-1.62764631 47.522022 -6.94100949 51.15596409 -13.5546875 52.12109375 C-20.76473316 52.30214364 -26.02928779 50.84265371 -32.01171875 46.75 C-34.38671875 44.1875 -34.38671875 44.1875 -36.01171875 41.75 C-36.71296875 41.13125 -37.41421875 40.5125 -38.13671875 39.875 C-43.06876544 34.28534709 -42.24679465 27.00623565 -42.27734375 19.95703125 C-42.02292143 16.88525585 -41.51081453 15.36336621 -40.01171875 12.75 C-39.82609375 11.6775 -39.64046875 10.605 -39.44921875 9.5 C-37.80993638 3.51081087 -32.13711578 -0.46745417 -26.95703125 -3.421875 C-17.50215717 -7.44684148 -8.49257988 -5.27694284 0 0 Z M-32.01171875 7.75 C-36.34010886 14.24854713 -37.96524587 19.98556489 -37.01171875 27.75 C-36.70535119 29.08978648 -36.38049537 30.42603146 -36.01171875 31.75 C-35.35171875 31.75 -34.69171875 31.75 -34.01171875 31.75 C-33.73328125 33.049375 -33.73328125 33.049375 -33.44921875 34.375 C-31.23385904 39.57627931 -27.42871605 42.38656563 -22.57421875 45.125 C-16.32273715 46.64975161 -12.43697875 46.32365429 -6.82421875 43.25 C-1.12467 39.55844612 1.8636265 35.12396425 3.98828125 28.75 C4.64947167 21.43354858 4.75561657 14.68268395 -0.01171875 8.75 C-5.34260404 3.85607252 -10.49564651 0.28893386 -17.92578125 0.49609375 C-23.4056599 1.16312018 -28.21164254 3.84992178 -32.01171875 7.75 Z " fill="#E6E6E6" transform="translate(378.01171875,89.25)"/>
<path d="M0 0 C1 1 1 1 1.11352539 3.13305664 C1.10828857 4.04949951 1.10305176 4.96594238 1.09765625 5.91015625 C1.09515869 6.800979 1.09266113 7.69180176 1.09008789 8.60961914 C1.07643188 10.31879517 1.07643188 10.31879517 1.0625 12.0625 C1.041875 15.671875 1.02125 19.28125 1 23 C10.24 23 19.48 23 29 23 C29 15.41 29 7.82 29 0 C30.65 -0.33 32.3 -0.66 34 -1 C35 0 35 0 35.12025452 2.20826721 C35.11803391 3.18311569 35.11581329 4.15796417 35.11352539 5.16235352 C35.11344986 6.26341934 35.11337433 7.36448517 35.11329651 8.49891663 C35.10813522 9.6968132 35.10297394 10.89470978 35.09765625 12.12890625 C35.0962413 13.34827377 35.09482635 14.5676413 35.09336853 15.82395935 C35.08774967 19.7368307 35.07519396 23.64964581 35.0625 27.5625 C35.05748743 30.20768147 35.0529241 32.85286383 35.04882812 35.49804688 C35.03777411 41.99871726 35.02101764 48.49935461 35 55 C32.625 55.625 32.625 55.625 30 56 C28 54 28 54 27.77294922 51.47802734 C27.78342285 50.4411377 27.79389648 49.40424805 27.8046875 48.3359375 C27.81113281 47.21445313 27.81757813 46.09296875 27.82421875 44.9375 C27.84097656 43.761875 27.85773438 42.58625 27.875 41.375 C27.88402344 40.19164062 27.89304688 39.00828125 27.90234375 37.7890625 C27.92597188 34.85917477 27.95891486 31.9296866 28 29 C27.25314941 29.00523682 26.50629883 29.01047363 25.73681641 29.01586914 C22.36621943 29.03660401 18.99563586 29.04964899 15.625 29.0625 C13.8615625 29.07506836 13.8615625 29.07506836 12.0625 29.08789062 C10.38027344 29.09272461 10.38027344 29.09272461 8.6640625 29.09765625 C7.10872803 29.10551147 7.10872803 29.10551147 5.52197266 29.11352539 C3 29 3 29 1 28 C1 37.24 1 46.48 1 56 C-0.65 56 -2.3 56 -4 56 C-6 54 -6 54 -6.24050903 51.70944214 C-6.23606781 50.75457916 -6.23162659 49.79971619 -6.22705078 48.81591797 C-6.22689972 47.73494843 -6.22674866 46.65397888 -6.22659302 45.54025269 C-6.21627045 44.36939117 -6.20594788 43.19852966 -6.1953125 41.9921875 C-6.1924826 40.79643097 -6.18965271 39.60067444 -6.18673706 38.36868286 C-6.17551305 34.53735481 -6.15040431 30.70625778 -6.125 26.875 C-6.11497308 24.28255545 -6.10584673 21.69010725 -6.09765625 19.09765625 C-6.07556646 12.73169158 -6.04206706 6.36586229 -6 0 C-3.49749232 -1.25125384 -2.59701335 -0.83774624 0 0 Z " fill="#D6D6D6" transform="translate(177,85)"/>
<path d="M0 0 C1.27810547 -0.00128906 2.55621094 -0.00257812 3.87304688 -0.00390625 C5.84047852 0.00189453 5.84047852 0.00189453 7.84765625 0.0078125 C9.19987073 0.00424594 10.55208437 0.00034239 11.90429688 -0.00390625 C13.80791992 -0.00197266 13.80791992 -0.00197266 15.75 0 C16.90878662 0.00112793 18.06757324 0.00225586 19.26147461 0.00341797 C21.91015625 0.1328125 21.91015625 0.1328125 22.91015625 1.1328125 C22.91015625 2.7828125 22.91015625 4.4328125 22.91015625 6.1328125 C12.68015625 6.1328125 2.45015625 6.1328125 -8.08984375 6.1328125 C-8.08984375 12.0728125 -8.08984375 18.0128125 -8.08984375 24.1328125 C0.49015625 24.1328125 9.07015625 24.1328125 17.91015625 24.1328125 C17.91015625 25.7828125 17.91015625 27.4328125 17.91015625 29.1328125 C13.78517087 29.16173635 9.6602114 29.17958517 5.53515625 29.1953125 C3.77171875 29.20788086 3.77171875 29.20788086 1.97265625 29.22070312 C0.29042969 29.22553711 0.29042969 29.22553711 -1.42578125 29.23046875 C-2.98111572 29.23832397 -2.98111572 29.23832397 -4.56787109 29.24633789 C-7.08984375 29.1328125 -7.08984375 29.1328125 -9.08984375 28.1328125 C-9.08984375 36.0528125 -9.08984375 43.9728125 -9.08984375 52.1328125 C-8.09984375 51.6378125 -8.09984375 51.6378125 -7.08984375 51.1328125 C-4.83863633 51.04707856 -2.58485072 51.02569062 -0.33203125 51.03515625 C0.66254593 51.03727867 0.66254593 51.03727867 1.67721558 51.03944397 C3.79657488 51.04504496 5.91582884 51.0575975 8.03515625 51.0703125 C9.47135264 51.07532738 10.90755069 51.07989031 12.34375 51.08398438 C15.8659197 51.09501468 19.3880277 51.11227991 22.91015625 51.1328125 C22.91015625 52.7828125 22.91015625 54.4328125 22.91015625 56.1328125 C19.80065096 57.68756514 16.50568595 57.27480774 13.09375 57.265625 C12.32209 57.26658173 11.55042999 57.26753845 10.75538635 57.26852417 C9.12378864 57.26920496 7.49218822 57.2673577 5.8605957 57.26318359 C3.35426804 57.25782663 0.848119 57.26313569 -1.65820312 57.26953125 C-3.24088581 57.26887059 -4.82356839 57.26758969 -6.40625 57.265625 C-7.16039688 57.26764923 -7.91454376 57.26967346 -8.69154358 57.27175903 C-13.97488751 57.24776874 -13.97488751 57.24776874 -15.08984375 56.1328125 C-15.18343565 54.41415841 -15.20728986 52.69165506 -15.20336914 50.97045898 C-15.20329361 49.86939316 -15.20321808 48.76832733 -15.20314026 47.63389587 C-15.19797897 46.4359993 -15.19281769 45.23810272 -15.1875 44.00390625 C-15.18608505 42.78453873 -15.1846701 41.5651712 -15.18321228 40.30885315 C-15.17759342 36.3959818 -15.16503771 32.48316669 -15.15234375 28.5703125 C-15.14733118 25.92513103 -15.14276785 23.27994867 -15.13867188 20.63476562 C-15.12761786 14.13409524 -15.11086139 7.63345789 -15.08984375 1.1328125 C-10.01612842 0.43142856 -5.13200981 0.00496155 0 0 Z " fill="#B5B5B5" transform="translate(303.08984375,83.8671875)"/>
<path d="M0 0 C2.875 -0.125 2.875 -0.125 6 0 C8 2 8 2 8 6 C8.60328125 6.17015625 9.2065625 6.3403125 9.828125 6.515625 C18.15390565 9.04021655 18.15390565 9.04021655 21 13 C21 13.99 21 14.98 21 16 C20.34 16 19.68 16 19 16 C18.7525 15.38125 18.505 14.7625 18.25 14.125 C16.76749514 11.60474173 15.71612936 10.98768341 13 10 C12.01 10 11.02 10 10 10 C10 10.66 10 11.32 10 12 C11.32 12.33 12.64 12.66 14 13 C13.34 13.33 12.68 13.66 12 14 C11.27840576 15.64363134 10.60648579 17.31050386 10 19 C11.31355469 18.89300781 12.62710938 18.78601563 13.98046875 18.67578125 C15.71608502 18.55381903 17.45176587 18.43277333 19.1875 18.3125 C20.05181641 18.23966797 20.91613281 18.16683594 21.80664062 18.09179688 C25.62934203 17.84280866 28.4221356 17.79609116 32.06640625 19.08203125 C34.77394144 21.76768737 34.66389115 23.61204335 34.75 27.375 C34.87889476 31.3799443 35.09217455 35.09049363 36 39 C35.01 39 34.02 39 33 39 C31.61461109 34.36295448 31.63005674 29.60470225 31.37890625 24.80078125 C31.25386719 23.87652344 31.12882812 22.95226562 31 22 C25.87685558 19.43842779 19.43044239 21.33053659 14.0625 22.5 C13.37865234 22.64308594 12.69480469 22.78617188 11.99023438 22.93359375 C10.32550486 23.28283771 8.66255125 23.64052946 7 24 C6.34 25.98 5.68 27.96 5 30 C6.051875 30.061875 7.10375 30.12375 8.1875 30.1875 C12.70459275 31.15015911 14.25177691 32.33570254 17 36 C17.3125 38.8125 17.3125 38.8125 17 41 C17.99 41.33 18.98 41.66 20 42 C18.68 42 17.36 42 16 42 C15.73445313 41.43410156 15.46890625 40.86820313 15.1953125 40.28515625 C14.84210938 39.55167969 14.48890625 38.81820312 14.125 38.0625 C13.60292969 36.96615234 13.60292969 36.96615234 13.0703125 35.84765625 C12.1315023 33.83667541 12.1315023 33.83667541 10 33 C6.75469635 32.80076581 3.5113038 32.68167367 0.26171875 32.57421875 C-3.63330347 31.88850825 -5.29211944 30.85940457 -8 28 C-8.92578125 25.421875 -8.92578125 25.421875 -9.3125 22.75 C-9.45300781 21.85796875 -9.59351562 20.9659375 -9.73828125 20.046875 C-9.82464844 19.37140625 -9.91101563 18.6959375 -10 18 C-10.95712891 19.17369141 -10.95712891 19.17369141 -11.93359375 20.37109375 C-12.75988281 21.38300781 -13.58617188 22.39492187 -14.4375 23.4375 C-15.26121094 24.44683594 -16.08492187 25.45617187 -16.93359375 26.49609375 C-19 29 -19 29 -20 30 C-21.09330504 36.73376511 -20.24767639 41.34276003 -16.5 47.0625 C-15.8503125 47.96097656 -15.200625 48.85945313 -14.53125 49.78515625 C-13 52 -13 52 -13 54 C-13.66 54 -14.32 54 -15 54 C-16.65220138 51.82291154 -18.14922145 49.66706857 -19.625 47.375 C-20.04523437 46.75753906 -20.46546875 46.14007813 -20.8984375 45.50390625 C-23.47620532 41.52845263 -24.52605566 38.88480259 -24 34 C-25.14926266 34.95421808 -26.29430541 35.91352045 -27.4375 36.875 C-28.07558594 37.40867188 -28.71367187 37.94234375 -29.37109375 38.4921875 C-31.27181233 40.25160566 -31.91900602 41.34806487 -32.23828125 43.91796875 C-32.43347511 49.88679167 -31.43006087 53.09991304 -28 58 C-27.01769502 59.0173873 -26.02530403 60.02596117 -25 61 C-25 61.66 -25 62.32 -25 63 C-30.52353065 60.7637033 -33.2713076 56.09796027 -36 51 C-37.1121248 47.64660328 -37.18565189 45.34034618 -36 42 C-31.8646125 35.99999581 -26.37157488 31.37730871 -20.83984375 26.7109375 C-18.33482937 24.38143368 -16.42578956 21.76781262 -14.4375 18.99609375 C-12.97404499 16.96395922 -11.46054989 15.00083475 -9.875 13.0625 C-9.41867188 12.49660156 -8.96234375 11.93070313 -8.4921875 11.34765625 C-6.71809865 9.74540323 -5.33059866 9.39510149 -3 9 C-2.67 7.35 -2.34 5.7 -2 4 C-1.01 4.33 -0.02 4.66 1 5 C1 5.66 1 6.32 1 7 C2.32 6.67 3.64 6.34 5 6 C5.33 4.68 5.66 3.36 6 2 C3.69 2.33 1.38 2.66 -1 3 C-0.67 2.01 -0.34 1.02 0 0 Z " fill="#BF5B65" transform="translate(57,57)"/>
<path d="M0 0 C3.23758329 2.41264933 5.67477163 4.44522435 7.125 8.3125 C7.375 11.5625 7.375 11.5625 7.125 14.3125 C6.125 15.3125 6.125 15.3125 3.0625 15.375 C2.093125 15.354375 1.12375 15.33375 0.125 15.3125 C-0.15214844 14.67441406 -0.42929688 14.03632812 -0.71484375 13.37890625 C-1.07707031 12.55261719 -1.43929687 11.72632812 -1.8125 10.875 C-2.17214844 10.05128906 -2.53179687 9.22757813 -2.90234375 8.37890625 C-3.70622323 6.36839883 -3.70622323 6.36839883 -4.875 5.3125 C-6.68312724 5.16158087 -8.49830617 5.09080992 -10.3125 5.0625 C-11.30121094 5.03671875 -12.28992188 5.0109375 -13.30859375 4.984375 C-14.15550781 5.09265625 -15.00242188 5.2009375 -15.875 5.3125 C-18.3849972 9.07749581 -18.48976744 10.85543606 -17.875 15.3125 C-13.65384867 20.37788159 -8.01208419 21.97817472 -1.8984375 24.1015625 C0.91662948 25.22904411 2.9219392 26.24247427 5.125 28.3125 C5.375 31 5.375 31 5.125 33.3125 C0.72715997 33.86223 -1.94483325 32.46744857 -5.69921875 30.4453125 C-7.90402296 29.2973893 -10.1349226 28.37108334 -12.4375 27.4375 C-18.28572186 24.83716606 -22.72821334 21.89276997 -25.375 15.9375 C-25.94710761 11.78971985 -26.40078878 8.27955083 -24.875 4.3125 C-18.46572352 -3.43903334 -8.60608487 -5.47532316 0 0 Z " fill="#DCDCDC" transform="translate(149.875,86.6875)"/>
<path d="M0 0 C4.53966165 1.51322055 6.4177597 4.9551714 9.25 8.6875 C9.83193115 9.44901367 10.4138623 10.21052734 11.01342773 10.99511719 C15.29580463 16.73844183 18.6188073 22.51796648 21.53515625 29.046875 C24.45462267 34.9325193 28.32243748 38.24079765 33.8125 41.6875 C34.40353516 42.07744141 34.99457031 42.46738281 35.60351562 42.86914062 C41.20220896 46.44082613 46.80504579 48.07986678 53.4375 48.625 C54.30246094 48.69976562 55.16742188 48.77453125 56.05859375 48.8515625 C56.69925781 48.90054688 57.33992188 48.94953125 58 49 C58.15855469 48.31292969 58.31710938 47.62585938 58.48046875 46.91796875 C60.39111064 39.539302 60.39111064 39.539302 63.1875 37.0625 C64.115625 36.711875 65.04375 36.36125 66 36 C66.97066406 35.60748047 66.97066406 35.60748047 67.9609375 35.20703125 C71.26862654 33.8974815 74.53594572 32.81779455 78 32 C78 29.69 78 27.38 78 25 C79.90375632 26.59653638 80.90049762 27.50541465 81.3984375 29.98046875 C81.32390183 36.99924415 80.14058307 42.33873456 75.6875 47.875 C68.54500596 53.52255343 58.67099441 52.94804983 50 52 C40.64295524 49.82511933 33.38290014 44.96764772 26 39 C25.29617187 38.47148437 24.59234375 37.94296875 23.8671875 37.3984375 C19.63258786 34.08517335 17.87133405 31.14616862 16 26 C15.2575 24.7625 15.2575 24.7625 14.5 23.5 C13 21 13 21 11.73046875 17.73828125 C10.05902649 13.77829653 7.65913107 10.86711787 4.8125 7.6875 C0 2.24582754 0 2.24582754 0 0 Z " fill="#AF4574" transform="translate(35,124)"/>
<path d="M0 0 C1.32 0 2.64 0 4 0 C4.33 0.99 4.66 1.98 5 3 C5.5878125 3.58394531 6.175625 4.16789062 6.78125 4.76953125 C9.47252945 7.47502521 11.44437971 10.49701036 13.5 13.6875 C17.27921691 19.46251528 21.17961158 25.1314001 25.1875 30.75 C29.23489712 36.4323063 33.12029324 42.1602791 36.79296875 48.09375 C37.86019066 49.93323516 37.86019066 49.93323516 39 51 C39.04063832 52.66617115 39.042721 54.33388095 39 56 C36.8125 56.390625 36.8125 56.390625 34 56 C32.05310435 53.94078344 30.5739638 52.07253489 29 49.75 C28.53142578 49.08540771 28.06285156 48.42081543 27.58007812 47.73608398 C23.18475603 41.43549661 19.00590417 34.98261618 14.86865234 28.51049805 C12.23014644 24.38718899 9.55175527 20.3199999 6.6953125 16.34375 C6.17775391 15.61921631 5.66019531 14.89468262 5.12695312 14.14819336 C4.15135679 12.79342751 3.16366639 11.4472602 2.16210938 10.11157227 C-1.04594874 5.64072972 -1.04594874 5.64072972 -0.7890625 2.05859375 C-0.52867187 1.37925781 -0.26828125 0.69992188 0 0 Z " fill="#E6E6E6" transform="translate(402,84)"/>
<path d="M0 0 C0.38384509 2.93597539 0.603843 5.68027373 0.6875 8.625 C0.73874023 9.82769531 0.73874023 9.82769531 0.79101562 11.0546875 C0.87356878 13.03596318 0.93845916 15.01796037 1 17 C-4.4633842 18.35447584 -9.35950674 19.24002099 -15 19 C-15.12375 17.741875 -15.2475 16.48375 -15.375 15.1875 C-15.79209066 12.94161539 -15.79209066 12.94161539 -17 11 C-20.21390851 9.36644054 -23.46306413 8.62646835 -27 8 C-27.125 5.625 -27.125 5.625 -27 3 C-24.29845703 0.29845703 -21.43552293 0.06109903 -17.8125 -0.625 C-16.51957031 -0.88539062 -15.22664063 -1.14578125 -13.89453125 -1.4140625 C-4.2888707 -2.85924714 -4.2888707 -2.85924714 0 0 Z " fill="#3A3535" transform="translate(89,79)"/>
<path d="M0 0 C0.33 0 0.66 0 1 0 C1.12117188 0.63808594 1.24234375 1.27617188 1.3671875 1.93359375 C1.53476563 2.75988281 1.70234375 3.58617188 1.875 4.4375 C2.11863281 5.67306641 2.11863281 5.67306641 2.3671875 6.93359375 C2.57601562 7.61550781 2.78484375 8.29742187 3 9 C3.66 9.33 4.32 9.66 5 10 C5.96484375 12.109375 5.96484375 12.109375 6.9375 14.75 C8.07053905 17.7316817 9.15601685 20.25823478 10.8125 23 C11.204375 23.66 11.59625 24.32 12 25 C11 27 11 27 9 28 C6 22.25 6 22.25 6 20 C5.030625 20.391875 4.06125 20.78375 3.0625 21.1875 C-1.11175714 22.39112016 -4.1424494 21.44468613 -8.1796875 20.1171875 C-10 19 -10 19 -10.7578125 16.8828125 C-10.83773437 16.26148438 -10.91765625 15.64015625 -11 15 C-10.01 14.67 -9.02 14.34 -8 14 C-9.11375 13.773125 -10.2275 13.54625 -11.375 13.3125 C-15 12 -15 12 -16.2265625 9.41796875 C-16.48179688 8.62003906 -16.73703125 7.82210937 -17 7 C-15.27709395 6.29695778 -13.54632534 5.61316509 -11.8125 4.9375 C-10.84957031 4.55464844 -9.88664062 4.17179687 -8.89453125 3.77734375 C-5.79065325 2.94377867 -4.05080883 3.11320182 -1 4 C-0.67 2.68 -0.34 1.36 0 0 Z " fill="#A64969" transform="translate(103,123)"/>
<path d="M0 0 C1.98 0 3.96 0 6 0 C6.3403125 1.85625 6.3403125 1.85625 6.6875 3.75 C7.7175386 7.93684756 9.28732637 9.67957898 13 12 C16.94561382 13.97280691 21.65826081 13.42691701 25.75 12.125 C26.4925 11.75375 27.235 11.3825 28 11 C28.7425 10.773125 29.485 10.54625 30.25 10.3125 C32.41970314 8.98684471 32.41970314 8.98684471 32.75 5.375 C32.8325 4.26125 32.915 3.1475 33 2 C34.9375 1.4375 34.9375 1.4375 37 1 C38 2 38 2 38.3125 5.1875 C37.93842569 9.75120662 36.9851382 11.55560977 34 15 C27.9976849 19.75183279 22.46096201 19.64404055 15 19 C10.60369399 18.47985358 7.74189375 17.8004643 4.625 14.4375 C3.820625 13.2309375 3.820625 13.2309375 3 12 C2.34 11.67 1.68 11.34 1 11 C-0.37097852 7.43545584 -0.07243154 3.76644005 0 0 Z " fill="#EBEBEB" transform="translate(120,121)"/>
<path d="M0 0 C2.5 0.125 2.5 0.125 3.5 1.125 C3.58865208 4.0093382 3.61521296 6.86962158 3.59765625 9.75390625 C3.5962413 10.61813705 3.59482635 11.48236786 3.59336853 12.37278748 C3.58775239 15.14439292 3.57519719 17.9159188 3.5625 20.6875 C3.55748708 22.5618478 3.55292381 24.43619685 3.54882812 26.31054688 C3.53777772 30.91539544 3.5205023 35.52018421 3.5 40.125 C1.125 40.75 1.125 40.75 -1.5 41.125 C-4.11152506 38.51347494 -3.73779913 36.68618146 -3.75224304 33.13035583 C-3.74505753 32.31261185 -3.73787201 31.49486786 -3.73046875 30.65234375 C-3.73001053 29.81409561 -3.72955231 28.97584747 -3.7290802 28.11219788 C-3.72605724 26.33935125 -3.71816963 24.56650729 -3.70581055 22.79370117 C-3.68755065 20.07005478 -3.68530085 17.34674808 -3.68554688 14.62304688 C-3.68063192 12.90364287 -3.6748037 11.18424119 -3.66796875 9.46484375 C-3.66685593 8.64507553 -3.6657431 7.82530731 -3.66459656 6.98069763 C-3.60707618 0.18035381 -3.60707618 0.18035381 0 0 Z " fill="#D6D6D6" transform="translate(403.5,99.875)"/>
<path d="M0 0 C0.99 0 1.98 0 3 0 C3.25394531 0.78503906 3.50789063 1.57007812 3.76953125 2.37890625 C5.62449433 8.04105949 7.53397712 13.57474966 10 19 C10.33 16.69 10.66 14.38 11 12 C11.33 12 11.66 12 12 12 C12 15.63 12 19.26 12 23 C11.34 23 10.68 23 10 23 C9.34 23.66 8.68 24.32 8 25 C7.5186659 23.27143541 7.04003029 21.54211929 6.5625 19.8125 C6.29566406 18.84957031 6.02882812 17.88664062 5.75390625 16.89453125 C5.07119982 14.27336303 4.50107805 11.661065 4 9 C3.34 9 2.68 9 2 9 C2 10.65 2 12.3 2 14 C1.01 14.33 0.02 14.66 -1 15 C-0.855625 15.56847656 -0.71125 16.13695313 -0.5625 16.72265625 C0.61545505 21.62262205 1.21427527 25.9645312 1 31 C0.01 31 -0.98 31 -2 31 C-2.66 28.36 -3.32 25.72 -4 23 C-4.66 23 -5.32 23 -6 23 C-6.99 21.02 -7.98 19.04 -9 17 C-11.79483736 18.45231568 -14.58528743 19.91286769 -17.375 21.375 C-18.1690625 21.7875 -18.963125 22.2 -19.78125 22.625 C-20.54179688 23.02460937 -21.30234375 23.42421875 -22.0859375 23.8359375 C-23.1385376 24.38580322 -23.1385376 24.38580322 -24.21240234 24.94677734 C-26.16163413 25.99478038 -26.16163413 25.99478038 -28 28 C-28.99 27.67 -29.98 27.34 -31 27 C-25.52794678 22.98128888 -20.38994419 19.36150111 -14 17 C-13.67 13.37 -13.34 9.74 -13 6 C-10 7 -10 7 -8.39453125 9.72265625 C-7.87246094 10.82480469 -7.35039063 11.92695312 -6.8125 13.0625 C-6.28269531 14.16722656 -5.75289062 15.27195312 -5.20703125 16.41015625 C-4.80871094 17.26480469 -4.41039063 18.11945313 -4 19 C-3.67 17.02 -3.34 15.04 -3 13 C-2.01 13 -1.02 13 0 13 C0 8.71 0 4.42 0 0 Z " fill="#AD4E68" transform="translate(62,95)"/>
<path d="M0 0 C1.65 0.33 3.3 0.66 5 1 C5 13.87 5 26.74 5 40 C2.525 40.495 2.525 40.495 0 41 C-1.86962718 39.13037282 -1.12886303 36.45336439 -1.13894653 33.96618652 C-1.1369223 33.12140747 -1.13489807 32.27662842 -1.1328125 31.40625 C-1.13376923 30.54439087 -1.13472595 29.68253174 -1.13571167 28.79455566 C-1.1363935 26.96866788 -1.13453904 25.14277769 -1.13037109 23.31689453 C-1.12502286 20.51198922 -1.13031599 17.70724405 -1.13671875 14.90234375 C-1.13605797 13.13281214 -1.13477681 11.36328064 -1.1328125 9.59375 C-1.13483673 8.74897095 -1.13686096 7.90419189 -1.13894653 7.03381348 C-1.11495031 1.11495031 -1.11495031 1.11495031 0 0 Z " fill="#D5D5D5" transform="translate(436,84)"/>
<path d="M0 0 C1.32 0 2.64 0 4 0 C4 18.15 4 36.3 4 55 C2.68 54.67 1.36 54.34 0 54 C0 36.18 0 18.36 0 0 Z " fill="#F6F6F6" transform="translate(289,85)"/>
<path d="M0 0 C0 18.15 0 36.3 0 55 C-1.32 54.67 -2.64 54.34 -4 54 C-4 36.51 -4 19.02 -4 1 C-1 0 -1 0 0 0 Z " fill="#F5F5F5" transform="translate(177,85)"/>
<path d="M0 0 C0.33 0.66 0.66 1.32 1 2 C3.02463255 2.65213292 3.02463255 2.65213292 5 3 C4.01 3.495 4.01 3.495 3 4 C1.75285597 6.40952023 1.75285597 6.40952023 1 9 C1.33 9.66 1.66 10.32 2 11 C-0.31 11.66 -2.62 12.32 -5 13 C-5 15.31 -5 17.62 -5 20 C-7.64 19.67 -10.28 19.34 -13 19 C-12.67 18.34 -12.34 17.68 -12 17 C-12.99 16.34 -13.98 15.68 -15 15 C-15 14.34 -15 13.68 -15 13 C-13.35 12.67 -11.7 12.34 -10 12 C-11.65 11.67 -13.3 11.34 -15 11 C-15.29296875 4.9453125 -15.29296875 4.9453125 -15 3 C-11.59568053 0.73045369 -9.83475798 0.63450051 -5.8125 0.375 C-4.72582031 0.30023438 -3.63914062 0.22546875 -2.51953125 0.1484375 C-1.68808594 0.09945312 -0.85664062 0.05046875 0 0 Z " fill="#8B4D52" transform="translate(66,67)"/>
<path d="M0 0 C0.33 0.66 0.66 1.32 1 2 C1.66 2 2.32 2 3 2 C3 5.3 3 8.6 3 12 C2.67 12 2.34 12 2 12 C1.67 9.36 1.34 6.72 1 4 C0.36191406 4.78246094 -0.27617188 5.56492187 -0.93359375 6.37109375 C-1.75988281 7.38300781 -2.58617188 8.39492187 -3.4375 9.4375 C-4.26121094 10.44683594 -5.08492187 11.45617187 -5.93359375 12.49609375 C-8 15 -8 15 -9 16 C-10.09330504 22.73376511 -9.24767639 27.34276003 -5.5 33.0625 C-4.8503125 33.96097656 -4.200625 34.85945313 -3.53125 35.78515625 C-2 38 -2 38 -2 40 C-2.66 40 -3.32 40 -4 40 C-5.65220138 37.82291154 -7.14922145 35.66706857 -8.625 33.375 C-9.04523437 32.75753906 -9.46546875 32.14007813 -9.8984375 31.50390625 C-12.47620532 27.52845263 -13.52605566 24.88480259 -13 20 C-14.14926266 20.95421808 -15.29430541 21.91352045 -16.4375 22.875 C-17.07558594 23.40867187 -17.71367187 23.94234375 -18.37109375 24.4921875 C-20.27181233 26.25160566 -20.91900602 27.34806487 -21.23828125 29.91796875 C-21.43347511 35.88679167 -20.43006087 39.09991304 -17 44 C-16.01769502 45.0173873 -15.02530403 46.02596117 -14 47 C-14 47.66 -14 48.32 -14 49 C-19.52353065 46.7637033 -22.2713076 42.09796027 -25 37 C-26.1121248 33.64660328 -26.18565189 31.34034618 -25 28 C-20.86933745 22.00685121 -15.38464426 17.38387201 -9.85546875 12.7265625 C-5.88756732 9.0343258 -2.99085844 4.48628766 0 0 Z " fill="#A5505F" transform="translate(46,71)"/>
<path d="M0 0 C0.99 0.495 0.99 0.495 2 1 C2 1.66 2 2.32 2 3 C2.66 3 3.32 3 4 3 C5.49821059 6.37097383 6 8.20442119 6 12 C7.20398438 11.6390625 8.40796875 11.278125 9.6484375 10.90625 C11.22391596 10.4373576 12.79943912 9.96861537 14.375 9.5 C15.1690625 9.26152344 15.963125 9.02304688 16.78125 8.77734375 C17.54179688 8.55175781 18.30234375 8.32617188 19.0859375 8.09375 C20.1385376 7.77954102 20.1385376 7.77954102 21.21240234 7.45898438 C23 7 23 7 25 7 C25 8.65 25 10.3 25 12 C23.8553125 11.6596875 23.8553125 11.6596875 22.6875 11.3125 C17.42884148 10.86685097 12.98540862 12.42986241 8 14 C8.93545998 16.59256899 8.93545998 16.59256899 11 19 C13.72714162 19.76381481 16.14167178 19.85942648 19 20 C18.34 20.66 17.68 21.32 17 22 C16.01 22 15.02 22 14 22 C14.33 23.32 14.66 24.64 15 26 C17.97 26.66 20.94 27.32 24 28 C24 28.33 24 28.66 24 29 C16.71677451 29.493778 16.71677451 29.493778 13.1875 27.0625 C12.465625 26.381875 11.74375 25.70125 11 25 C10.01 24.67 9.02 24.34 8 24 C6.5522078 21.10441559 6 19.25811062 6 16 C5.01 16 4.02 16 3 16 C3.0928125 14.6696875 3.0928125 14.6696875 3.1875 13.3125 C2.9768144 9.59038774 1.91632798 8.11403298 0 5 C-0.1875 2.1875 -0.1875 2.1875 0 0 Z " fill="#CD5478" transform="translate(78,116)"/>
<path d="M0 0 C3.83069979 1.27689993 4.01917046 2.39764736 5.8203125 5.92578125 C6.35124512 6.94494629 6.88217773 7.96411133 7.42919922 9.01416016 C8.26862061 10.64683838 8.26862061 10.64683838 9.125 12.3125 C17.30192626 27.79472359 24.86268205 41.54936287 42.375 47.0625 C45 48 45 48 46 50 C35.89976876 49.51903661 29.01574039 45.84063325 22.05859375 38.51953125 C11.11026104 25.1197692 11.11026104 25.1197692 10 18 C9.34 18 8.68 18 8 18 C4.71428571 10.57142857 4.71428571 10.57142857 4 7 C3.34 7 2.68 7 2 7 C0.5393715 4.35261084 0 3.10551666 0 0 Z " fill="#C15073" transform="translate(45,119)"/>
<path d="M0 0 C4.53966165 1.51322055 6.4177597 4.9551714 9.25 8.6875 C9.83193115 9.44901367 10.4138623 10.21052734 11.01342773 10.99511719 C15.29580463 16.73844183 18.6188073 22.51796648 21.53515625 29.046875 C24.45462267 34.9325193 28.32243748 38.24079765 33.8125 41.6875 C34.40353516 42.07744141 34.99457031 42.46738281 35.60351562 42.86914062 C41.20220896 46.44082613 46.80504579 48.07986678 53.4375 48.625 C54.30246094 48.69976562 55.16742188 48.77453125 56.05859375 48.8515625 C56.69925781 48.90054688 57.33992188 48.94953125 58 49 C58 49.33 58 49.66 58 50 C48.30181136 51.89149069 42.25853643 50.31150683 34 45 C30.87018813 42.80288168 27.92756387 40.45706253 25 38 C24.4121875 37.56816406 23.824375 37.13632813 23.21875 36.69140625 C19.17463996 33.66823576 17.74910263 30.66427368 16 26 C15.2575 24.7625 15.2575 24.7625 14.5 23.5 C13 21 13 21 11.73046875 17.73828125 C10.05902649 13.77829653 7.65913107 10.86711787 4.8125 7.6875 C0 2.24582754 0 2.24582754 0 0 Z " fill="#A1446B" transform="translate(35,124)"/>
<path d="M0 0 C9.57 0 19.14 0 29 0 C29 1.65 29 3.3 29 5 C19.1 5 9.2 5 -1 5 C-0.67 3.35 -0.34 1.7 0 0 Z " fill="#F6F6F6" transform="translate(297,135)"/>
<path d="M0 0 C0.66 2.97 1.32 5.94 2 9 C0.08594633 9.67413211 -1.83136026 10.3390332 -3.75 11 C-4.81734375 11.37125 -5.8846875 11.7425 -6.984375 12.125 C-10 13 -10 13 -14 13 C-14.66 10.36 -15.32 7.72 -16 5 C-14.03387584 4.26686896 -12.06774448 3.53375722 -10.1015625 2.80078125 C-8.45035157 2.17160236 -6.81536743 1.4998218 -5.1875 0.8125 C-3 0 -3 0 0 0 Z " fill="#413639" transform="translate(98,115)"/>
<path d="M0 0 C-1.0986667 5.89284865 -2.03939407 9.22562592 -7 13 C-10.68690105 14.7858427 -13.88131989 16 -18 16 C-17.78621948 12.77260381 -17.34131969 9.95909459 -16 7 C-13.20868392 5.03162173 -10.21091065 4.09993133 -7 3 C-1.96428571 0 -1.96428571 0 0 0 Z " fill="#3F3439" transform="translate(114,158)"/>
<path d="M0 0 C0.33 2.31 0.66 4.62 1 7 C-0.91405367 7.67413211 -2.83136026 8.3390332 -4.75 9 C-5.81734375 9.37125 -6.8846875 9.7425 -7.984375 10.125 C-11 11 -11 11 -15 11 C-16.25664978 8.09399739 -17 6.20395416 -17 3 C-11.17745757 1.03181664 -6.16618181 -0.40214229 0 0 Z " fill="#3C3536" transform="translate(95,107)"/>
<path d="M0 0 C1.00023193 0.00523682 2.00046387 0.01047363 3.03100586 0.01586914 C4.1105957 0.0190918 5.19018555 0.02231445 6.30249023 0.02563477 C8.00695312 0.03820312 8.00695312 0.03820312 9.74584961 0.05102539 C11.45611328 0.05779297 11.45611328 0.05779297 13.20092773 0.06469727 C16.02845312 0.07652792 18.85587601 0.09301129 21.68334961 0.11352539 C22.24584961 2.05102539 22.24584961 2.05102539 22.68334961 4.11352539 C21.68334961 5.11352539 21.68334961 5.11352539 19.36669922 5.22705078 C18.36646729 5.22181396 17.36623535 5.21657715 16.33569336 5.21118164 C15.25610352 5.20795898 14.17651367 5.20473633 13.06420898 5.20141602 C11.92790039 5.19303711 10.7915918 5.1846582 9.62084961 5.17602539 C8.48067383 5.17151367 7.34049805 5.16700195 6.16577148 5.16235352 C3.3382461 5.15052287 0.51082321 5.13403949 -2.31665039 5.11352539 C-2.87915039 3.17602539 -2.87915039 3.17602539 -3.31665039 1.11352539 C-2.31665039 0.11352539 -2.31665039 0.11352539 0 0 Z " fill="#F6F6F6" transform="translate(182.316650390625,107.886474609375)"/>
<path d="M0 0 C8.25 0 16.5 0 25 0 C25 1.65 25 3.3 25 5 C16.75 5 8.5 5 0 5 C0 3.35 0 1.7 0 0 Z " fill="#F5F5F5" transform="translate(296,108)"/>
<path d="M0 0 C0.33 0 0.66 0 1 0 C1.00879936 1.00811234 1.00879936 1.00811234 1.01777649 2.03659058 C1.08155475 9.01181759 1.16593329 15.98657651 1.26245117 22.96142578 C1.29577046 25.56683188 1.32378026 28.17231138 1.34643555 30.77783203 C1.37985254 34.51626973 1.43216246 38.25403041 1.48828125 41.9921875 C1.49467117 43.16304901 1.5010611 44.33391052 1.50764465 45.54025269 C1.53733589 47.161707 1.53733589 47.161707 1.56762695 48.81591797 C1.57873001 49.77078094 1.58983307 50.72564392 1.60127258 51.70944214 C1.79864265 52.84326828 1.79864265 52.84326828 2 54 C2.99 54.66 3.98 55.32 5 56 C0.125 55.125 0.125 55.125 -1 54 C-1.08737645 52.14630389 -1.10698153 50.28932459 -1.09765625 48.43359375 C-1.09515869 47.42095459 -1.09266113 46.40831543 -1.09008789 45.36499023 C-1.08098389 44.06891846 -1.07187988 42.77284668 -1.0625 41.4375 C-1.041875 37.333125 -1.02125 33.22875 -1 29 C-9.25 29 -17.5 29 -26 29 C-26 28.67 -26 28.34 -26 28 C-18.08 27.67 -10.16 27.34 -2 27 C-2 25.68 -2 24.36 -2 23 C-1.34 23 -0.68 23 0 23 C0 15.41 0 7.82 0 0 Z " fill="#9E9E9E" transform="translate(206,85)"/>
<path d="M0 0 C1.32 0.33 2.64 0.66 4 1 C3.67 13.54 3.34 26.08 3 39 C2.01 39 1.02 39 0 39 C0 26.13 0 13.26 0 0 Z " fill="#F7F7F7" transform="translate(436,84)"/>
<path d="M0 0 C0.66 2.31 1.32 4.62 2 7 C-7.15577191 10.78859527 -7.15577191 10.78859527 -12 10 C-13.875 8.125 -13.875 8.125 -15 6 C-15 5.34 -15 4.68 -15 4 C-13.25307205 3.32532438 -11.50231475 2.66055844 -9.75 2 C-8.77546875 1.62875 -7.8009375 1.2575 -6.796875 0.875 C-4 0 -4 0 0 0 Z " fill="#3C3437" transform="translate(101,126)"/>
<path d="M0 0 C8.91 0 17.82 0 27 0 C27 1.32 27 2.64 27 4 C17.76 4 8.52 4 -1 4 C-0.67 2.68 -0.34 1.36 0 0 Z " fill="#F9F9F9" transform="translate(298,85)"/>
<path d="M0 0 C5.28 0.33 10.56 0.66 16 1 C16.33 1.99 16.66 2.98 17 4 C14.69 4.66 12.38 5.32 10 6 C10 8.31 10 10.62 10 13 C7.36 12.67 4.72 12.34 2 12 C2.33 11.34 2.66 10.68 3 10 C2.01 9.34 1.02 8.68 0 8 C0 7.34 0 6.68 0 6 C1.65 5.67 3.3 5.34 5 5 C3.35 4.67 1.7 4.34 0 4 C0 2.68 0 1.36 0 0 Z " fill="#654145" transform="translate(51,74)"/>
<path d="M0 0 C12.87 0.495 12.87 0.495 26 1 C26 1.33 26 1.66 26 2 C18.08 2 10.16 2 2 2 C2 8.6 2 15.2 2 22 C11.57 22 21.14 22 31 22 C31 22.33 31 22.66 31 23 C15.655 23.495 15.655 23.495 0 24 C0 16.08 0 8.16 0 0 Z " fill="#6F6F6F" transform="translate(294,112)"/>
<path d="M0 0 C4.9399341 -0.29058436 8.09825673 -0.21320034 12 3 C12.8125 5.1875 12.8125 5.1875 13 7 C13.66 7 14.32 7 15 7 C15.33 6.34 15.66 5.68 16 5 C16 5.99 16 6.98 16 8 C18.31 8 20.62 8 23 8 C23 8.33 23 8.66 23 9 C15.26940505 10.35709504 7.85546636 11.31918373 0 11 C0.93585937 10.58621094 0.93585937 10.58621094 1.890625 10.1640625 C4.65602844 8.63796949 5.55205628 6.75109306 7 4 C6.01 3.67 5.02 3.34 4 3 C4 2.34 4 1.68 4 1 C2.68 0.67 1.36 0.34 0 0 Z " fill="#463839" transform="translate(63,66)"/>
<path d="M0 0 C0.33 0 0.66 0 1 0 C1.5 3.1875 1.5 3.1875 1 7 C-2.4039619 10.34333154 -6.18789381 11.84024141 -10.8125 12.75 C-14.10692849 13.63900076 -14.10692849 13.63900076 -15.1015625 16.1171875 C-15.86233911 18.39951734 -16.49215689 20.6494119 -17 23 C-17.99 22.67 -18.98 22.34 -20 22 C-17.87016575 12.77071823 -17.87016575 12.77071823 -14.8125 10.0625 C-13.884375 9.711875 -12.95625 9.36125 -12 9 C-11.35289063 8.73832031 -10.70578125 8.47664062 -10.0390625 8.20703125 C-6.73137346 6.8974815 -3.46405428 5.81779455 0 5 C0 3.35 0 1.7 0 0 Z " fill="#A1446B" transform="translate(113,151)"/>
<path d="M0 0 C0.33 1.98 0.66 3.96 1 6 C-1.45382134 7.22691067 -3.19984103 7.20175931 -5.9375 7.25 C-7.25041016 7.28867188 -7.25041016 7.28867188 -8.58984375 7.328125 C-11 7 -11 7 -12.81640625 5.609375 C-14 4 -14 4 -14 2 C-4.58997722 -0.29612756 -4.58997722 -0.29612756 0 0 Z " fill="#41353A" transform="translate(106,136)"/>
<path d="M0 0 C2.31 0.33 4.62 0.66 7 1 C7.33 2.98 7.66 4.96 8 7 C7.01 7 6.02 7 5 7 C5 9.97 5 12.94 5 16 C2.63746991 13.63746991 1.962152 11.68772729 0.8125 8.5625 C0.44769531 7.59441406 0.08289063 6.62632813 -0.29296875 5.62890625 C-1 3 -1 3 0 0 Z " fill="#49383C" transform="translate(68,100)"/>
<path d="M0 0 C2.16965398 3.25448097 3.36143262 6.5253585 4.625 10.1875 C4.85445313 10.84169922 5.08390625 11.49589844 5.3203125 12.16992188 C5.88395144 13.77864135 6.44247984 15.38914977 7 17 C7.33 14.69 7.66 12.38 8 10 C8.33 10 8.66 10 9 10 C9 13.63 9 17.26 9 21 C8.34 21 7.68 21 7 21 C6.34 21.66 5.68 22.32 5 23 C4.5186659 21.27143541 4.04003029 19.54211929 3.5625 17.8125 C3.29566406 16.84957031 3.02882813 15.88664062 2.75390625 14.89453125 C2.07119982 12.27336303 1.50107805 9.661065 1 7 C0.34 7 -0.32 7 -1 7 C-0.67 4.69 -0.34 2.38 0 0 Z " fill="#A34D62" transform="translate(65,97)"/>
<path d="M0 0 C2.60608273 2.5162178 4.89381685 5.05134359 7 8 C6.67 8.66 6.34 9.32 6 10 C5.34 9.34 4.68 8.68 4 8 C3.67 19.88 3.34 31.76 3 44 C2.67 44 2.34 44 2 44 C1.67 31.46 1.34 18.92 1 6 C-0.32 5.34 -1.64 4.68 -3 4 C-1.68 4 -0.36 4 1 4 C0.67 2.68 0.34 1.36 0 0 Z " fill="#5A5A5A" transform="translate(405,95)"/>
<path d="M0 0 C0 1.98 0 3.96 0 6 C-0.66 4.68 -1.32 3.36 -2 2 C-3.75376953 2.32484375 -3.75376953 2.32484375 -5.54296875 2.65625 C-7.09110418 2.93772917 -8.63928361 3.21896644 -10.1875 3.5 C-10.95642578 3.64308594 -11.72535156 3.78617187 -12.51757812 3.93359375 C-16.39421773 4.63238715 -20.041471 5.19039017 -24 5 C-18.48674158 -0.51325842 -7.40215204 -0.37638061 0 0 Z " fill="#CD5A70" transform="translate(94,96)"/>
<path d="M0 0 C3 2 3 2 3.51953125 4.13671875 C3.61621094 4.97847656 3.71289062 5.82023437 3.8125 6.6875 C4.62882015 11.59251935 6.26889151 14.15277241 9.7578125 17.625 C11 19 11 19 11 21 C5.52203495 18.78215132 2.63239999 14.11251238 0 9 C-0.55035242 5.74095656 -0.37522275 3.32340153 0 0 Z " fill="#A64D64" transform="translate(21,99)"/>
<path d="M0 0 C0.33 0.66 0.66 1.32 1 2 C1.66 2 2.32 2 3 2 C3 5.3 3 8.6 3 12 C2.67 12 2.34 12 2 12 C1.67 9.36 1.34 6.72 1 4 C0.38511719 4.7940625 -0.22976562 5.588125 -0.86328125 6.40625 C-1.67152344 7.4271875 -2.47976562 8.448125 -3.3125 9.5 C-4.11300781 10.5209375 -4.91351563 11.541875 -5.73828125 12.59375 C-6.48464844 13.3878125 -7.23101562 14.181875 -8 15 C-8.99 15 -9.98 15 -11 15 C-10.62488281 14.50371094 -10.24976563 14.00742188 -9.86328125 13.49609375 C-6.50836081 9.04258476 -3.22288764 4.54995902 0 0 Z " fill="#944F56" transform="translate(46,71)"/>
<path d="M0 0 C3.90196011 0.78039202 7.35878212 2.43050953 11 4 C12.670625 4.5259375 12.670625 4.5259375 14.375 5.0625 C17 6 17 6 18 8 C10.76179827 7.65532373 6.08409811 5.89785009 0 2 C0 1.34 0 0.68 0 0 Z " fill="#B34576" transform="translate(73,161)"/>
<path d="M0 0 C-1.65 0.33 -3.3 0.66 -5 1 C-4.67 2.32 -4.34 3.64 -4 5 C0.455 5.99 0.455 5.99 5 7 C5 7.33 5 7.66 5 8 C-2.26153846 8.49230769 -2.26153846 8.49230769 -5.8125 6.125 C-6.534375 5.42375 -7.25625 4.7225 -8 4 C-8.99 3.34 -9.98 2.68 -11 2 C-10.34 2 -9.68 2 -9 2 C-9 1.34 -9 0.68 -9 0 C-5.62182575 -0.84454356 -3.32534757 -1.10844919 0 0 Z " fill="#D0507E" transform="translate(97,137)"/>
<path d="M0 0 C0.99 0 1.98 0 3 0 C3.33 2.31 3.66 4.62 4 7 C3.34 7 2.68 7 2 7 C2 9.31 2 11.62 2 14 C1.360625 14.12375 0.72125 14.2475 0.0625 14.375 C-0.618125 14.58125 -1.29875 14.7875 -2 15 C-2.33 15.66 -2.66 16.32 -3 17 C-3 15.68 -3 14.36 -3 13 C-2.01 13 -1.02 13 0 13 C0 8.71 0 4.42 0 0 Z " fill="#BB546A" transform="translate(62,95)"/>
<path d="M0 0 C0.53625 0.2475 1.0725 0.495 1.625 0.75 C0.305 1.08 -1.015 1.41 -2.375 1.75 C-2.375 2.41 -2.375 3.07 -2.375 3.75 C1.585 3.75 5.545 3.75 9.625 3.75 C9.625 4.08 9.625 4.41 9.625 4.75 C4.675 4.75 -0.275 4.75 -5.375 4.75 C-5.375 5.41 -5.375 6.07 -5.375 6.75 C-6.695 7.08 -8.015 7.41 -9.375 7.75 C-9.25 6 -9.25 6 -8.375 3.75 C-3.38130517 -0.35592686 -3.38130517 -0.35592686 0 0 Z " fill="#C65F65" transform="translate(56.375,65.25)"/>
<path d="M0 0 C0.66 0 1.32 0 2 0 C2.33 1.98 2.66 3.96 3 6 C2.34 6 1.68 6 1 6 C1 10.29 1 14.58 1 19 C0.34 19 -0.32 19 -1 19 C-1.66 16.03 -2.32 13.06 -3 10 C-2.01 10.33 -1.02 10.66 0 11 C0 7.37 0 3.74 0 0 Z " fill="#DA577C" transform="translate(74,107)"/>
<path d="M0 0 C4.00641016 1.33547005 4.92462273 3.78565422 6.8125 7.3125 C7.45832031 8.46363281 8.10414062 9.61476562 8.76953125 10.80078125 C10 14 10 14 9.19921875 16.41796875 C8.80347656 16.94003906 8.40773438 17.46210938 8 18 C4.71428571 10.57142857 4.71428571 10.57142857 4 7 C3.34 7 2.68 7 2 7 C0.5393715 4.35261084 0 3.10551666 0 0 Z " fill="#A8555D" transform="translate(45,119)"/>
<path d="M0 0 C0.33 0 0.66 0 1 0 C1.020625 1.258125 1.04125 2.51625 1.0625 3.8125 C1.630926 9.40794341 4.33773222 13.18536742 7.50390625 17.71484375 C9 20 9 20 9 22 C8.34 22 7.68 22 7 22 C3.19221328 17.62893122 -0.71423805 12.87246427 -1.30078125 6.9765625 C-1.0351606 4.56872853 -0.65952542 2.32894915 0 0 Z " fill="#A64F62" transform="translate(35,89)"/>
<path d="M0 0 C0.33 0.66 0.66 1.32 1 2 C3.02463255 2.65213292 3.02463255 2.65213292 5 3 C4.34 3.66 3.68 4.32 3 5 C0.08047432 4.98251781 -2.72297885 4.86055367 -5.625 4.625 C-6.42679688 4.56828125 -7.22859375 4.5115625 -8.0546875 4.453125 C-10.03715498 4.31152018 -12.01869051 4.15697741 -14 4 C-13.34 3.01 -12.68 2.02 -12 1 C-9.1796875 0.48828125 -9.1796875 0.48828125 -5.875 0.3125 C-4.23144531 0.21388672 -4.23144531 0.21388672 -2.5546875 0.11328125 C-1.29011719 0.05720703 -1.29011719 0.05720703 0 0 Z " fill="#734649" transform="translate(66,67)"/>
<path d="M0 0 C1.125 3.75 1.125 3.75 0 6 C-0.48012498 11.90665383 0.06805468 17.37151479 1.5625 23.08984375 C2 25 2 25 2 28 C-1.5195625 22.33809511 -2.18199864 18.09063297 -2.1875 11.5 C-2.19974609 10.72785156 -2.21199219 9.95570312 -2.22460938 9.16015625 C-2.23476991 5.2517352 -2.21572048 3.32358072 0 0 Z " fill="#979797" transform="translate(225,101)"/>
<path d="M0 0 C4.05456308 1.35152103 5.74845336 4.09613661 8.25 7.375 C8.72179688 7.96539062 9.19359375 8.55578125 9.6796875 9.1640625 C11.015625 10.8984375 11.015625 10.8984375 13 14 C12.67 14.99 12.34 15.98 12 17 C10.18232326 14.7331445 8.37076857 12.46184027 6.5625 10.1875 C5.7880957 9.22360352 5.7880957 9.22360352 4.99804688 8.24023438 C4.50498047 7.61826172 4.01191406 6.99628906 3.50390625 6.35546875 C3.04830322 5.78465576 2.5927002 5.21384277 2.12329102 4.62573242 C1 3 1 3 0 0 Z " fill="#B94E71" transform="translate(35,124)"/>
<path d="M0 0 C2.05078125 0.03255208 4.1015625 0.06510417 6.15234375 0.09765625 C5.82234375 1.74765625 5.49234375 3.39765625 5.15234375 5.09765625 C4.22421875 4.87078125 3.29609375 4.64390625 2.33984375 4.41015625 C-0.81592473 3.73445642 -0.81592473 3.73445642 -2.72265625 5.53515625 C-3.09390625 6.05078125 -3.46515625 6.56640625 -3.84765625 7.09765625 C-2.81269978 0.14866278 -2.81269978 0.14866278 0 0 Z " fill="#6C4546" transform="translate(56.84765625,58.90234375)"/>
<path d="M0 0 C4.24005962 0.24941527 6.52418846 0.63554861 9.9375 3.25 C12 6 12 6 12.3125 8.8125 C12.1578125 9.8953125 12.1578125 9.8953125 12 11 C12.99 11.33 13.98 11.66 15 12 C13.68 12 12.36 12 11 12 C10.79246094 11.44570312 10.58492187 10.89140625 10.37109375 10.3203125 C8.63454439 5.95391552 8.63454439 5.95391552 5.17578125 3.0234375 C3.04988852 2.40683068 3.04988852 2.40683068 0 2 C0 1.34 0 0.68 0 0 Z " fill="#A1505D" transform="translate(62,87)"/>
<path d="M0 0 C0.33 0 0.66 0 1 0 C1 7.92 1 15.84 1 24 C1.99 23.67 2.98 23.34 4 23 C3.67 24.32 3.34 25.64 3 27 C2.01 27 1.02 27 0 27 C0 18.09 0 9.18 0 0 Z " fill="#D3D3D3" transform="translate(293,112)"/>
<path d="M0 0 C0.33 0 0.66 0 1 0 C1.06058594 0.88042969 1.12117188 1.76085937 1.18359375 2.66796875 C1.26738281 3.82941406 1.35117188 4.99085937 1.4375 6.1875 C1.55931641 7.91033203 1.55931641 7.91033203 1.68359375 9.66796875 C1.95403812 12.51598171 2.37521747 15.21210482 3 18 C2.01 18 1.02 18 0 18 C-0.96604701 14.75684218 -1.13419024 11.81491334 -1.125 8.4375 C-1.12757812 7.48746094 -1.13015625 6.53742188 -1.1328125 5.55859375 C-1 3 -1 3 0 0 Z " fill="#B45563" transform="translate(90,78)"/>
<path d="M0 0 C2.64465038 3.1254959 3.84414715 6.08788267 5 10 C4.34 10.66 3.68 11.32 3 12 C2.01 10.02 1.02 8.04 0 6 C-0.99 6.495 -0.99 6.495 -2 7 C-2 5.02 -2 3.04 -2 1 C-1.34 0.67 -0.68 0.34 0 0 Z " fill="#9B4B5F" transform="translate(53,106)"/>
<path d="M0 0 C0.33 0.66 0.66 1.32 1 2 C2.98 2 4.96 2 7 2 C3.5233662 4.14336161 0.78770805 4.21277626 -3.25 4.125 C-4.32765625 4.10695312 -5.4053125 4.08890625 -6.515625 4.0703125 C-7.33546875 4.04710937 -8.1553125 4.02390625 -9 4 C-9 3.34 -9 2.68 -9 2 C-6.94921875 1.77213542 -4.8984375 1.54427083 -2.84765625 1.31640625 C-0.98859771 1.18113386 -0.98859771 1.18113386 0 0 Z " fill="#C1467F" transform="translate(94,172)"/>
<path d="M0 0 C0.66 0 1.32 0 2 0 C0.61811547 3.21043882 -0.92421903 5.04936365 -3.625 7.25 C-4.57246094 8.03117187 -4.57246094 8.03117187 -5.5390625 8.828125 C-6.02117187 9.21484375 -6.50328125 9.6015625 -7 10 C-7 7 -7 7 -4.625 4.4375 C-3.75875 3.633125 -2.8925 2.82875 -2 2 C-1.34 1.34 -0.68 0.68 0 0 Z " fill="#5D5D5D" transform="translate(352,92)"/>
<path d="M0 0 C2.875 -0.125 2.875 -0.125 6 0 C8 2 8 2 8 6 C8.66 6.33 9.32 6.66 10 7 C8.35 7 6.7 7 5 7 C5.33 5.35 5.66 3.7 6 2 C3.69 2.33 1.38 2.66 -1 3 C-0.67 2.01 -0.34 1.02 0 0 Z " fill="#A85759" transform="translate(57,57)"/>
<path d="M0 0 C0 0.33 0 0.66 0 1 C-5.38027025 2.19088986 -10.45291384 3.2919519 -16 3 C-11.47351306 -1.52648694 -5.91286711 -1.20670757 0 0 Z " fill="#B9536A" transform="translate(95,106)"/>
<path d="M0 0 C1.32 0.33 2.64 0.66 4 1 C3.51789063 1.39832031 3.03578125 1.79664062 2.5390625 2.20703125 C1.59160156 3.00173828 1.59160156 3.00173828 0.625 3.8125 C-0.00148437 4.33457031 -0.62796875 4.85664062 -1.2734375 5.39453125 C-3.2221048 7.08225739 -3.2221048 7.08225739 -5 10 C-4.49701212 5.59885603 -2.91227269 3.28804981 0 0 Z " fill="#C4C4C4" transform="translate(231,91)"/>
<path d="M0 0 C2 3 2 3 1.75 5.5 C1 8 1 8 -1 11 C-1.66 10.67 -2.32 10.34 -3 10 C-2.01 6.7 -1.02 3.4 0 0 Z " fill="#9E426C" transform="translate(96,163)"/>
<path d="M0 0 C-0.33 0.99 -0.66 1.98 -1 3 C-4.96 3 -8.92 3 -13 3 C-8.48332093 -0.01111938 -5.3360009 -0.10067926 0 0 Z " fill="#A05458" transform="translate(67,65)"/>
<path d="M0 0 C0.99773437 0.02320312 1.99546875 0.04640625 3.0234375 0.0703125 C4.52777344 0.09738281 4.52777344 0.09738281 6.0625 0.125 C6.83335937 0.14820312 7.60421875 0.17140625 8.3984375 0.1953125 C8.3984375 0.5253125 8.3984375 0.8553125 8.3984375 1.1953125 C7.80675781 1.20949219 7.21507812 1.22367187 6.60546875 1.23828125 C2.03996907 1.51384975 -0.04317681 1.72809182 -3.6640625 4.7578125 C-4.3034375 5.5621875 -4.9428125 6.3665625 -5.6015625 7.1953125 C-4.51902891 0.33926643 -4.51902891 0.33926643 0 0 Z " fill="#494949" transform="translate(136.6015625,90.8046875)"/>
<path d="M0 0 C6.875 0.875 6.875 0.875 8 2 C9.34747084 2.23075082 10.70377565 2.41153063 12.0625 2.5625 C13.361875 2.706875 14.66125 2.85125 16 3 C16 3.33 16 3.66 16 4 C9.86946489 4.32712342 5.37330889 4.39366878 0 1 C0 0.67 0 0.34 0 0 Z " fill="#9F9F9F" transform="translate(237,137)"/>
<path d="M0 0 C0.66 0 1.32 0 2 0 C2.33 1.98 2.66 3.96 3 6 C2.34 6 1.68 6 1 6 C1 7.98 1 9.96 1 12 C0.67 12 0.34 12 0 12 C0 8.04 0 4.08 0 0 Z " fill="#E85D7F" transform="translate(74,107)"/>
<path d="M0 0 C2.19050021 0.09017996 4.378466 0.24666208 6.5625 0.4375 C7.76003906 0.53933594 8.95757812 0.64117187 10.19140625 0.74609375 C11.11824219 0.82988281 12.04507813 0.91367188 13 1 C13 1.33 13 1.66 13 2 C11.04310341 2.22142255 9.08438048 2.4267568 7.125 2.625 C5.48917969 2.79902344 5.48917969 2.79902344 3.8203125 2.9765625 C2.42425781 2.98816406 2.42425781 2.98816406 1 3 C0.34 2.34 -0.32 1.68 -1 1 C-0.67 0.67 -0.34 0.34 0 0 Z " fill="#923F66" transform="translate(80,172)"/>
<path d="M0 0 C0 0.66 0 1.32 0 2 C-4.455 3.485 -4.455 3.485 -9 5 C-9 3.68 -9 2.36 -9 1 C-5.846632 0.29925156 -3.27275026 0 0 0 Z " fill="#C0487C" transform="translate(106,161)"/>
<path d="M0 0 C3.7952131 1.49097658 5.61042731 3.75700849 8 7 C5 7 5 7 2.3125 4.625 C0 2 0 2 0 0 Z " fill="#C84D7C" transform="translate(66,154)"/>
<path d="M0 0 C0.66 0 1.32 0 2 0 C6 6.75 6 6.75 6 9 C3 8 3 8 1.3125 5.0625 C0 2 0 2 0 0 Z " fill="#B55268" transform="translate(54,135)"/>
<path d="M0 0 C-1.49097658 3.7952131 -3.75700849 5.61042731 -7 8 C-7 5 -7 5 -4.625 2.3125 C-2 0 -2 0 0 0 Z " fill="#6A6A6A" transform="translate(240,93)"/>
<path d="M0 0 C0.66 0.33 1.32 0.66 2 1 C-3.14285714 7.57142857 -3.14285714 7.57142857 -7 9 C-5.44499019 5.18315774 -2.96404505 2.80804268 0 0 Z " fill="#BFBFBF" transform="translate(346,89)"/>
<path d="M0 0 C1.485 0.99 1.485 0.99 3 2 C2.67 4.97 2.34 7.94 2 11 C0 9 0 9 -0.1953125 6.8359375 C-0.17210938 6.02382812 -0.14890625 5.21171875 -0.125 4.375 C-0.10695313 3.55773437 -0.08890625 2.74046875 -0.0703125 1.8984375 C-0.04710938 1.27195312 -0.02390625 0.64546875 0 0 Z " fill="#74434D" transform="translate(21,99)"/>
<path d="M0 0 C2.97 0.99 5.94 1.98 9 3 C9 3.33 9 3.66 9 4 C7.35 4 5.7 4 4 4 C4 4.66 4 5.32 4 6 C3.34 6 2.68 6 2 6 C1.34 4.02 0.68 2.04 0 0 Z " fill="#9F4865" transform="translate(84,133)"/>
<path d="M0 0 C1.88391785 3.26545761 2.49287967 6.28111761 3 10 C2.01 10.495 2.01 10.495 1 11 C-1.125 3.375 -1.125 3.375 0 0 Z " fill="#B8506D" transform="translate(99,113)"/>
<path d="M0 0 C2.14418558 3.21627837 2.67582137 5.19090105 3 9 C2.34 9.66 1.68 10.32 1 11 C1 9.68 1 8.36 1 7 C0.34 7 -0.32 7 -1 7 C-0.67 4.69 -0.34 2.38 0 0 Z " fill="#A75062" transform="translate(65,97)"/>
<path d="M0 0 C0.66 0 1.32 0 2 0 C1.67 3.63 1.34 7.26 1 11 C0.67 11 0.34 11 0 11 C0 8.69 0 6.38 0 4 C-0.66 4 -1.32 4 -2 4 C-1.34 2.68 -0.68 1.36 0 0 Z " fill="#D25D70" transform="translate(34,86)"/>
<path d="M0 0 C2.99324263 1.0975223 3.84610901 1.67682892 5.25 4.625 C5.4975 5.40875 5.745 6.1925 6 7 C3.69 6.01 1.38 5.02 -1 4 C-0.67 2.68 -0.34 1.36 0 0 Z " fill="#BB4E71" transform="translate(82,128)"/>
<path d="M0 0 C0.66 0 1.32 0 2 0 C2.33 1.65 2.66 3.3 3 5 C2.34 5 1.68 5 1 5 C1 6.65 1 8.3 1 10 C0.67 10 0.34 10 0 10 C0 6.7 0 3.4 0 0 Z " fill="#CF5973" transform="translate(50,102)"/>
<path d="M0 0 C0.33 0 0.66 0 1 0 C1.33 4.29 1.66 8.58 2 13 C-1 10 -1 10 -1.07421875 7.51953125 C-0.94660156 6.62621094 -0.81898437 5.73289062 -0.6875 4.8125 C-0.56761719 3.91144531 -0.44773438 3.01039062 -0.32421875 2.08203125 C-0.21722656 1.39496094 -0.11023437 0.70789063 0 0 Z " fill="#9C4E5C" transform="translate(35,89)"/>
<path d="M0 0 C0.66 0.33 1.32 0.66 2 1 C0.02 3.31 -1.96 5.62 -4 8 C-4.66 7.34 -5.32 6.68 -6 6 C-4.02 4.02 -2.04 2.04 0 0 Z " fill="#B25661" transform="translate(41,79)"/>
</svg>
